<?xml version="1.0" encoding="iso-8859-1"?>
<!-- Generator: Adobe Illustrator 19.0.0, SVG Export Plug-In . SVG Version: 6.00 Build 0)  -->
<svg version="1.1" id="Capa_1" xmlns="http://www.w3.org/2000/svg" xmlns:xlink="http://www.w3.org/1999/xlink" x="0px" y="0px"
	 viewBox="0 0 419.617 419.617" style="enable-background:new 0 0 419.617 419.617;" xml:space="preserve">
<g>
	<g>
		<path d="M411.217,322.084l-57.2-57c-11.3-11.1-29.4-11.1-40.7,0l-36.3,37.2c-3.7,3.2-9.1,3.2-12.8,0
			c-26.9-21.5-52.7-44.3-77.2-68.5c-24.5-24.3-47.5-49.9-69.1-76.8c-3.4-3.6-3.4-9.2,0-12.8l38-37.1c11.1-11.5,11.1-29.7,0-41.2
			l-57.2-57.2c-11.6-10.8-29.6-10.8-41.2,0l-47,47.2c0,0-2.1,2-2.8,2.8c-26.5,31.8,15.8,132.7,118.4,234.7
			c74.7,75.1,159.1,125.4,209.5,125.4c8.4,0.8,17.2-0.2,24.2-4.9c1.4-1,5.3-4.5,5.3-4.5l46.1-46.3
			C422.417,351.684,422.417,333.484,411.217,322.084z"/>
	</g>
</g>
<g>
</g>
<g>
</g>
<g>
</g>
<g>
</g>
<g>
</g>
<g>
</g>
<g>
</g>
<g>
</g>
<g>
</g>
<g>
</g>
<g>
</g>
<g>
</g>
<g>
</g>
<g>
</g>
<g>
</g>
</svg>
