<svg id="Layer_2" height="512" viewBox="0 0 24 24" width="512" xmlns="http://www.w3.org/2000/svg" data-name="Layer 2"><path d="m20.077 8.855h-5.286l1.157-2.892a2.267 2.267 0 0 0 -.5-2.447 1.719 1.719 0 0 0 -2.613.216l-3.091 4.325a14.6 14.6 0 0 1 -1.534 1.811l-.99.99a.484.484 0 0 0 -.142.343v7.441a.487.487 0 0 0 .142.344l1.109 1.114a3.03 3.03 0 0 0 2.156.893h6.026a2.463 2.463 0 0 0 2.248-1.461l2.956-6.651a3.288 3.288 0 0 0 .285-1.348v-.754a1.926 1.926 0 0 0 -1.923-1.924z"/><path d="m3.747 10.207a1.747 1.747 0 0 0 -1.747 1.747v6.569a1.747 1.747 0 0 0 3.494 0v-6.569a1.747 1.747 0 0 0 -1.747-1.747z"/></svg>