<?xml version="1.0" encoding="iso-8859-1"?>
<!-- Generator: Adobe Illustrator 19.0.0, SVG Export Plug-In . SVG Version: 6.00 Build 0)  -->
<svg version="1.1" id="Capa_1" xmlns="http://www.w3.org/2000/svg" xmlns:xlink="http://www.w3.org/1999/xlink" x="0px" y="0px"
	 viewBox="0 0 409.6 409.6" style="enable-background:new 0 0 409.6 409.6;" xml:space="preserve">
<g>
	<g>
		<circle cx="145.05" cy="204.8" r="25.6"/>
	</g>
</g>
<g>
	<g>
		<circle cx="264.55" cy="204.8" r="25.6"/>
	</g>
</g>
<g>
	<g>
		<path d="M375.465,0H34.135C15.365,0,0,15.37,0,34.13v341.335c0,18.77,15.365,34.135,34.135,34.135h341.33
			c18.77,0,34.135-15.365,34.135-34.135V34.13C409.6,15.37,394.235,0,375.465,0z M221.865,340.152v-50.017h-34.13v50.017
			c-67.333-8.417-119.47-65.751-119.47-135.352c0-69.601,52.137-126.93,119.47-135.352v50.022h34.13V69.448
			c67.333,8.422,119.47,65.751,119.47,135.352C341.335,274.401,289.198,331.735,221.865,340.152z"/>
	</g>
</g>
<g>
</g>
<g>
</g>
<g>
</g>
<g>
</g>
<g>
</g>
<g>
</g>
<g>
</g>
<g>
</g>
<g>
</g>
<g>
</g>
<g>
</g>
<g>
</g>
<g>
</g>
<g>
</g>
<g>
</g>
</svg>
